<?xml version="1.0" encoding="utf-8"?>
<!-- Generator: Adobe Illustrator 24.2.1, SVG Export Plug-In . SVG Version: 6.00 Build 0)  -->
<svg version="1.1" id="Layer_1" xmlns="http://www.w3.org/2000/svg" xmlns:xlink="http://www.w3.org/1999/xlink" x="0px" y="0px"
	 viewBox="0 0 115.6 30" style="enable-background:new 0 0 115.6 30;" xml:space="preserve">
<style type="text/css">
	.st0{fill:none;}
	.st1{fill:#091533;}
</style>
<rect x="46.1" y="7.4" class="st0" width="138.9" height="17.6"/>
<g>
	<g>
		<path class="st1" d="M49.7,17c0.9,1,2.4,1.8,4.2,1.8c1.6,0,2.3-0.7,2.3-1.5c0-1-1.2-1.3-2.7-1.7c-2.2-0.5-5-1.1-5-4.1
			c0-2.2,1.9-4,5.1-4c2.1,0,3.9,0.6,5.2,1.9l-1.6,2.1c-1.1-1-2.5-1.5-3.8-1.5c-1.3,0-2,0.6-2,1.4c0,0.9,1.1,1.2,2.7,1.5
			c2.2,0.5,5,1.2,5,4.1c0,2.4-1.7,4.3-5.3,4.3c-2.6,0-4.4-0.9-5.7-2.1L49.7,17z"/>
		<path class="st1" d="M67.6,15.2c0-1.3-0.7-1.8-1.8-1.8c-1,0-1.8,0.6-2.2,1.1v6.5H61V7.7h2.5v4.9c0.6-0.7,1.8-1.5,3.4-1.5
			c2.1,0,3.1,1.2,3.1,3v6.9h-2.5V15.2z"/>
		<path class="st1" d="M78.4,20.1c-0.7,0.8-1.8,1.2-3.1,1.2c-1.5,0-3.4-1-3.4-3.2c0-2.3,1.8-3.1,3.4-3.1c1.3,0,2.4,0.4,3.1,1.2v-1.3
			c0-1-0.8-1.6-2.1-1.6c-1,0-2,0.4-2.8,1.1l-1-1.7c1.2-1,2.7-1.5,4.2-1.5c2.2,0,4.2,0.9,4.2,3.7v6.2h-2.5V20.1z M78.4,17.6
			c-0.4-0.6-1.2-0.8-2-0.8c-1,0-1.8,0.5-1.8,1.5c0,0.9,0.8,1.4,1.8,1.4c0.8,0,1.6-0.3,2-0.8V17.6z"/>
		<path class="st1" d="M83.5,11.4H86v1.3c0.7-0.9,1.9-1.5,3.1-1.5v2.5c-0.2,0-0.4-0.1-0.7-0.1c-0.8,0-2,0.5-2.4,1.1v6.4h-2.5V11.4z"
			/>
		<path class="st1" d="M95.1,11.2c2.9,0,4.8,2.2,4.8,5.3v0.6h-7.2c0.2,1.2,1.1,2.2,2.8,2.2c0.9,0,2-0.4,2.6-1l1.1,1.6
			c-1,0.9-2.5,1.3-4,1.3c-2.9,0-5.2-2-5.2-5.1C90.1,13.4,92.1,11.2,95.1,11.2z M92.7,15.3h4.8c-0.1-0.9-0.7-2.1-2.4-2.1
			C93.5,13.2,92.8,14.4,92.7,15.3z"/>
	</g>
</g>
<g id="XMLID_9_">
	<polygon id="XMLID_10_" class="st1" points="27,12 27.5,11.8 27.8,10.8 	"/>
	<path id="XMLID_22_" class="st1" d="M28.6,1.5c-7.8,0-14.1,6.3-14.1,14.1c0,3,0.9,5.7,2.5,8l2.1-1.4l1.3-1c1.8-1.5,3.1-3.5,3.8-5.7
		l-1.6,0.2l-2.1-0.5l4.8-2.3l1.7-2.3h0.2c0.5,0,1.1-0.2,1.4-0.7l2.8-3.5L31.6,7L31,7l0.8,0.4l0.6,0.8l-0.1,0.5L32.6,9l-0.4-0.2
		l-0.8,2.9l2.2-1.6l-0.2,1.1c0,0-3.1,2.7-1.5,5.1c1.6,2.4,2.7,4.2,2.9,5.7l-1.4-1c0,0,0.6,1.8,0.2,5.4l-0.8-1c0,0,0.1,1.7,0.1,3.7
		c5.6-1.9,9.7-7.2,9.7-13.4C42.7,7.8,36.4,1.5,28.6,1.5z"/>
</g>
</svg>
