<svg xmlns="http://www.w3.org/2000/svg" viewBox="0 0 430.16 419.38">
  <g>
    <polygon points="190.96 159.76 198.6 156.26 203.59 141.8 190.96 159.76" />
    <path fill="currentColor"
      d="M214.47,43.19C95.69,43.19-.61,139.49-.61,258.27A214.08,214.08,0,0,0,36.82,379.5l31.34-21.78,19.4-15.64a170.1,170.1,0,0,0,57.07-86.77L120,258l-31.25-7.31,72.48-35.24,25.27-34.58h2.27A27.32,27.32,0,0,0,210,170.72l43-53,7.43,9.34-8.92-.53,12.93,5.58,9.18,11.54-2.06,7.1,4.38,7-5.6-2.8-12.68,43.86,33.91-24.6-2.66,16s-47.21,41.23-22.61,77.8,41.23,64.5,44.55,86.44L288.93,339.1s9.31,27.93,3.32,81.79l-12-14.63s2.21,26.63,1.42,56.32c85.84-28.24,147.85-109,147.85-204.31C429.56,139.49,333.26,43.19,214.47,43.19Z"
      transform="translate(0.61 -43.19)" />
  </g>
</svg>
